<?xml version="1.0" standalone="no"?>
<!DOCTYPE svg PUBLIC "-//W3C//DTD SVG 20010904//EN"
 "http://www.w3.org/TR/2001/REC-SVG-20010904/DTD/svg10.dtd">
<svg version="1.0" xmlns="http://www.w3.org/2000/svg"
 width="700.000000pt" height="700.000000pt" viewBox="0 0 700.000000 700.000000"
 preserveAspectRatio="xMidYMid meet">
<metadata>
Created by potrace 1.14, written by Peter Selinger 2001-2017
</metadata>
<g transform="translate(0.000000,700.000000) scale(0.100000,-0.100000)"
fill="#000000" stroke="none">
<path d="M555 6993 c-244 -33 -456 -219 -532 -468 -17 -58 -18 -178 -18 -3025
0 -2847 1 -2967 18 -3025 68 -222 229 -383 453 -452 57 -17 177 -18 3024 -18
2848 0 2967 1 3024 18 225 70 383 228 453 453 17 57 18 176 18 3024 0 2847 -1
2967 -18 3024 -69 222 -223 378 -447 453 -53 17 -169 18 -3000 19 -1620 1
-2958 -1 -2975 -3z m4648 -1930 l566 -898 -1134 -3 c-624 -1 -1646 -1 -2270 0
l-1134 3 566 898 567 897 1136 0 1136 0 567 -897z m198 -1828 l366 -580 -1133
-3 c-624 -1 -1644 -1 -2268 0 l-1133 3 319 505 c175 278 341 540 368 583 l49
77 1533 -2 1533 -3 366 -580z m-29 -1562 l396 -628 -1134 -3 c-624 -1 -1644
-1 -2268 0 l-1134 3 396 628 396 627 1476 0 1476 0 396 -627z"/>
</g>
</svg>
