<?xml version="1.0" encoding="UTF-8" standalone="no"?>
<!-- Created with Inkscape (http://www.inkscape.org/) -->

<svg
   xmlns:dc="http://purl.org/dc/elements/1.1/"
   xmlns:cc="http://creativecommons.org/ns#"
   xmlns:rdf="http://www.w3.org/1999/02/22-rdf-syntax-ns#"
   xmlns:svg="http://www.w3.org/2000/svg"
   xmlns="http://www.w3.org/2000/svg"
   xmlns:sodipodi="http://sodipodi.sourceforge.net/DTD/sodipodi-0.dtd"
   xmlns:inkscape="http://www.inkscape.org/namespaces/inkscape"
   width="172.33546mm"
   height="112.52047mm"
   viewBox="0 0 172.33546 112.52047"
   version="1.1"
   id="svg8"
   inkscape:version="0.92.5 (2060ec1f9f, 2020-04-08)"
   sodipodi:docname="db.svg">
  <defs
     id="defs2" />
  <sodipodi:namedview
     id="base"
     pagecolor="#ffffff"
     bordercolor="#666666"
     borderopacity="1.0"
     inkscape:pageopacity="0.0"
     inkscape:pageshadow="2"
     inkscape:zoom="0.9899495"
     inkscape:cx="-67.981452"
     inkscape:cy="117.53156"
     inkscape:document-units="mm"
     inkscape:current-layer="layer1"
     showgrid="false"
     inkscape:snap-grids="true"
     inkscape:snap-to-guides="true"
     inkscape:window-width="1848"
     inkscape:window-height="1016"
     inkscape:window-x="72"
     inkscape:window-y="27"
     inkscape:window-maximized="1"
     inkscape:pagecheckerboard="false"
     fit-margin-top="0"
     fit-margin-left="0"
     fit-margin-right="0"
     fit-margin-bottom="0" />
  <metadata
     id="metadata5">
    <rdf:RDF>
      <cc:Work
         rdf:about="">
        <dc:format>image/svg+xml</dc:format>
        <dc:type
           rdf:resource="http://purl.org/dc/dcmitype/StillImage" />
        <dc:title />
      </cc:Work>
    </rdf:RDF>
  </metadata>
  <g
     inkscape:label="Layer 1"
     inkscape:groupmode="layer"
     id="layer1"
     transform="translate(11.902272,-1.1326332)">
    <ellipse
       style="fill:#c7f3ce;fill-opacity:1;stroke-width:0.19247563"
       id="path53"
       cx="-105.27962"
       cy="146.52725"
       rx="48.083939"
       ry="24.856066" />
    <ellipse
       style="opacity:1;fill:#ffffff;fill-opacity:1;stroke-width:0.15500259"
       id="path53-5"
       cx="-105.06686"
       cy="145.99271"
       rx="42.336872"
       ry="18.307962" />
    <ellipse
       style="fill:#c7f3ce;fill-opacity:1;stroke-width:0.19305886"
       id="path53-3"
       cx="-105.83873"
       cy="131.56017"
       rx="48.375782"
       ry="24.856066" />
    <ellipse
       style="opacity:1;fill:#ffffff;fill-opacity:1;stroke-width:0.15377222"
       id="path53-5-5"
       cx="-105.5391"
       cy="129.68927"
       rx="41.667419"
       ry="18.307962" />
    <ellipse
       style="fill:#c7f3ce;fill-opacity:1;stroke-width:0.19460358"
       id="path53-3-6"
       cx="-106.43164"
       cy="115.25672"
       rx="49.153015"
       ry="24.856066" />
    <ellipse
       style="opacity:1;fill:#ffffff;fill-opacity:1;stroke-width:0.15500259"
       id="path53-5-5-2"
       cx="-106.5069"
       cy="113.92036"
       rx="42.336872"
       ry="18.307962" />
    <ellipse
       style="fill:#c7f3ce;fill-opacity:1;stroke-width:0.19460358"
       id="path53-3-6-9"
       cx="-106.62365"
       cy="99.220551"
       rx="49.153015"
       ry="24.856066" />
    <ellipse
       style="opacity:1;fill:#ffffff;fill-opacity:1;stroke-width:0.15500259"
       id="path53-5-5-2-1"
       cx="-107.46693"
       cy="97.616928"
       rx="42.336872"
       ry="18.307962" />
    <ellipse
       style="fill:#c7f3ce;fill-opacity:1;stroke-width:0.19460358"
       id="path53-3-6-9-2"
       cx="-107.19966"
       cy="83.718918"
       rx="49.153015"
       ry="24.856066" />
    <text
       xml:space="preserve"
       style="font-style:normal;font-variant:normal;font-weight:bold;font-stretch:normal;font-size:22.17844009px;line-height:1.25;font-family:sans-serif;-inkscape-font-specification:'sans-serif, Bold';font-variant-ligatures:normal;font-variant-caps:normal;font-variant-numeric:normal;font-feature-settings:normal;text-align:start;letter-spacing:0px;word-spacing:0px;writing-mode:lr-tb;text-anchor:start;fill:#545454;fill-opacity:1;stroke:none;stroke-width:0.20955859;stroke-miterlimit:4;stroke-dasharray:none;"
       x="147.002"
       y="62.735687"
       id="text4685"
       transform="scale(0.88164848,1.1342389)"><tspan
         sodipodi:role="line"
         id="tspan4683"
         x="147.002"
         y="62.735687"
         style="font-style:normal;font-variant:normal;font-weight:bold;font-stretch:normal;font-size:22.17844009px;font-family:sans-serif;-inkscape-font-specification:'sans-serif, Bold';font-variant-ligatures:normal;font-variant-caps:normal;font-variant-numeric:normal;font-feature-settings:normal;text-align:start;writing-mode:lr-tb;text-anchor:start;fill:#545454;fill-opacity:1;stroke-width:0.20955859;stroke-miterlimit:4;stroke-dasharray:none;">DB</tspan></text>
    <text
       xml:space="preserve"
       style="font-style:normal;font-variant:normal;font-weight:bold;font-stretch:normal;font-size:14.75187206px;line-height:1.25;font-family:sans-serif;-inkscape-font-specification:'sans-serif, Bold';font-variant-ligatures:normal;font-variant-caps:normal;font-variant-numeric:normal;font-feature-settings:normal;text-align:start;letter-spacing:0px;word-spacing:0px;writing-mode:lr-tb;text-anchor:start;fill:#545454;fill-opacity:1;stroke:none;stroke-width:0.13938679;stroke-miterlimit:4;stroke-dasharray:none;"
       x="-16.171881"
       y="25.983412"
       id="text4685-4"
       transform="matrix(0.76393296,-0.4410569,0.5668203,0.98176154,0,0)"><tspan
         sodipodi:role="line"
         id="tspan4683-4"
         x="-16.171881"
         y="25.983412"
         style="font-style:normal;font-variant:normal;font-weight:bold;font-stretch:normal;font-size:14.75187206px;font-family:sans-serif;-inkscape-font-specification:'sans-serif, Bold';font-variant-ligatures:normal;font-variant-caps:normal;font-variant-numeric:normal;font-feature-settings:normal;text-align:start;writing-mode:lr-tb;text-anchor:start;fill:#545454;fill-opacity:1;stroke-width:0.13938679;stroke-miterlimit:4;stroke-dasharray:none;">DB</tspan></text>
    <text
       xml:space="preserve"
       style="font-style:normal;font-variant:normal;font-weight:bold;font-stretch:normal;font-size:14.75187206px;line-height:1.25;font-family:sans-serif;-inkscape-font-specification:'sans-serif, Bold';font-variant-ligatures:normal;font-variant-caps:normal;font-variant-numeric:normal;font-feature-settings:normal;text-align:start;letter-spacing:0px;word-spacing:0px;writing-mode:lr-tb;text-anchor:start;fill:#545454;fill-opacity:1;stroke:none;stroke-width:0.13938679;stroke-miterlimit:4;stroke-dasharray:none;"
       x="11.200015"
       y="53.33923"
       id="text4685-4-6"
       transform="matrix(0.85205651,0.22830785,-0.29340778,1.0950127,0,0)"><tspan
         sodipodi:role="line"
         id="tspan4683-4-3"
         x="11.200015"
         y="53.33923"
         style="font-style:normal;font-variant:normal;font-weight:bold;font-stretch:normal;font-size:14.75187206px;font-family:sans-serif;-inkscape-font-specification:'sans-serif, Bold';font-variant-ligatures:normal;font-variant-caps:normal;font-variant-numeric:normal;font-feature-settings:normal;text-align:start;writing-mode:lr-tb;text-anchor:start;fill:#545454;fill-opacity:1;stroke-width:0.13938679;stroke-miterlimit:4;stroke-dasharray:none;">DB</tspan></text>
    <text
       xml:space="preserve"
       style="font-style:normal;font-variant:normal;font-weight:bold;font-stretch:normal;font-size:14.75187206px;line-height:1.25;font-family:sans-serif;-inkscape-font-specification:'sans-serif, Bold';font-variant-ligatures:normal;font-variant-caps:normal;font-variant-numeric:normal;font-feature-settings:normal;text-align:start;letter-spacing:0px;word-spacing:0px;writing-mode:lr-tb;text-anchor:start;fill:#545454;fill-opacity:1;stroke:none;stroke-width:0.13938679;stroke-miterlimit:4;stroke-dasharray:none;"
       x="-115.89333"
       y="36.089767"
       id="text4685-4-6-1"
       transform="matrix(0.22830785,-0.85205651,1.0950127,0.29340777,0,0)"><tspan
         sodipodi:role="line"
         id="tspan4683-4-3-7"
         x="-115.89333"
         y="36.089767"
         style="font-style:normal;font-variant:normal;font-weight:bold;font-stretch:normal;font-size:14.75187206px;font-family:sans-serif;-inkscape-font-specification:'sans-serif, Bold';font-variant-ligatures:normal;font-variant-caps:normal;font-variant-numeric:normal;font-feature-settings:normal;text-align:start;writing-mode:lr-tb;text-anchor:start;fill:#545454;fill-opacity:1;stroke-width:0.13938679;stroke-miterlimit:4;stroke-dasharray:none;">DB</tspan></text>
    <text
       xml:space="preserve"
       style="font-style:normal;font-variant:normal;font-weight:bold;font-stretch:normal;font-size:10.13539314px;line-height:1.25;font-family:sans-serif;-inkscape-font-specification:'sans-serif, Bold';font-variant-ligatures:normal;font-variant-caps:normal;font-variant-numeric:normal;font-feature-settings:normal;text-align:start;letter-spacing:0px;word-spacing:0px;writing-mode:lr-tb;text-anchor:start;fill:#545454;fill-opacity:1;stroke:none;stroke-width:0.09576682;stroke-miterlimit:4;stroke-dasharray:none;"
       x="-47.647537"
       y="-146.18649"
       id="text4685-4-6-1-5"
       transform="matrix(-0.62934373,0.61820331,-0.80879541,-0.7944784,0,0)"><tspan
         sodipodi:role="line"
         id="tspan4683-4-3-7-9"
         x="-47.647537"
         y="-146.18649"
         style="font-style:normal;font-variant:normal;font-weight:bold;font-stretch:normal;font-size:10.13539314px;font-family:sans-serif;-inkscape-font-specification:'sans-serif, Bold';font-variant-ligatures:normal;font-variant-caps:normal;font-variant-numeric:normal;font-feature-settings:normal;text-align:start;writing-mode:lr-tb;text-anchor:start;fill:#545454;fill-opacity:1;stroke-width:0.09576682;stroke-miterlimit:4;stroke-dasharray:none;">DB</tspan></text>
    <text
       xml:space="preserve"
       style="font-style:normal;font-variant:normal;font-weight:bold;font-stretch:normal;font-size:14.75187206px;line-height:1.25;font-family:sans-serif;-inkscape-font-specification:'sans-serif, Bold';font-variant-ligatures:normal;font-variant-caps:normal;font-variant-numeric:normal;font-feature-settings:normal;text-align:start;letter-spacing:0px;word-spacing:0px;writing-mode:lr-tb;text-anchor:start;fill:#545454;fill-opacity:1;stroke:none;stroke-width:0.13938679;stroke-miterlimit:4;stroke-dasharray:none;"
       x="96.053986"
       y="-92.857635"
       id="text4685-4-6-1-6"
       transform="matrix(0.4410569,0.76393296,-0.98176154,0.56682029,0,0)"><tspan
         sodipodi:role="line"
         id="tspan4683-4-3-7-2"
         x="96.053986"
         y="-92.857635"
         style="font-style:normal;font-variant:normal;font-weight:bold;font-stretch:normal;font-size:14.75187206px;font-family:sans-serif;-inkscape-font-specification:'sans-serif, Bold';font-variant-ligatures:normal;font-variant-caps:normal;font-variant-numeric:normal;font-feature-settings:normal;text-align:start;writing-mode:lr-tb;text-anchor:start;fill:#545454;fill-opacity:1;stroke-width:0.13938679;stroke-miterlimit:4;stroke-dasharray:none;">DB</tspan></text>
    <path
       style="opacity:1;fill:#545454;fill-opacity:1;stroke-width:0.10101525;stroke-miterlimit:4;stroke-dasharray:none"
       d="m 67.0871,113.41614 c -8.91427,-0.91292 -17.68355,-3.29635 -24.28206,-6.59968 -7.15175,-3.58029 -12.08862,-8.373387 -13.854421,-13.450937 -1.073874,-3.08793 -0.809572,-7.4174 0.621792,-10.18535 0.36127,-0.69862 0.325208,-0.86917 -0.565837,-2.67623 -1.381525,-2.80174 -1.90427,-5.64889 -1.50693,-8.20754 0.171495,-1.10432 0.668116,-2.76967 1.103599,-3.70076 l 0.791789,-1.6929 -0.659476,-0.86461 c -1.140389,-1.49513 -2.286646,-4.38865 -2.605686,-6.57759 -0.37316,-2.56024 0.114432,-5.25652 1.412526,-7.811 l 0.832498,-1.63825 -1.089305,-2.2922 c -1.942719,-4.088 -1.93058,-8.229682 0.03558,-12.139422 l 0.519436,-1.032904 -0.963674,-1.907058 c -2.138187,-4.231355 -2.190226,-8.22923 -0.160506,-12.330572 2.29771,-4.642848 6.419236,-8.302998 13.136027,-11.6655396 13.744738,-6.880857 34.350358,-9.01431603 52.420788,-5.42753 12.27823,2.437097 22.00174,7.2338386 27.21416,13.4251296 2.57246,3.055558 3.75926,6.053022 3.78033,9.54787 0.0143,2.36901 -0.2959,3.77717 -1.29841,5.894506 l -0.67117,1.417545 1.09634,2.223905 c 1.51061,3.064227 1.8913,5.676423 1.24756,8.56037 -0.25291,1.13308 -0.83171,2.80432 -1.28622,3.71386 l -0.82637,1.65371 0.81718,1.49789 c 2.30704,4.22885 2.24617,9.35568 -0.16045,13.51262 l -0.76648,1.32394 0.9034,1.77825 c 2.10639,4.14625 2.10356,8.65816 -0.008,12.7415 -0.4056,0.78435 -0.39009,0.88305 0.38127,2.42669 2.90623,5.81587 1.54,12.04901 -3.8232,17.442587 -6.7686,6.80697 -19.346807,11.63966 -33.99224,13.06021 -3.40256,0.33003 -14.49583,0.31725 -17.79382,-0.0205 z m 15.10073,-7.03042 c 14.17088,-0.49076 28.23944,-5.2054 33.86334,-11.348247 2.20266,-2.4059 3.05667,-4.68095 2.91947,-7.77732 -0.0774,-1.74677 -0.38059,-1.82148 -1.88882,-0.46544 -6.40866,5.76193 -18.47612,10.16534 -31.64898,11.54868 -5.05751,0.53112 -14.51917,0.53212 -19.56646,0.002 -11.44455,-1.20185 -21.84739,-4.62124 -29.056659,-9.55086 -1.291241,-0.88294 -2.427539,-1.52552 -2.525104,-1.42795 -0.307256,0.30725 0.382233,3.5482 1.037518,4.87689 3.701884,7.5061 19.148985,13.492397 36.709445,14.226217 2.49897,0.10443 4.9044,0.15948 5.34539,0.12233 0.441,-0.0371 2.60588,-0.13002 4.81086,-0.20638 z m 2.40542,-16.476207 c 16.4379,-1.36416 29.97318,-7.51799 32.74373,-14.88697 0.53816,-1.4314 0.75381,-4.86764 0.30547,-4.86764 -0.12422,0 -0.4387,0.23521 -0.69886,0.52268 -0.92695,1.02427 -4.90548,3.49266 -8.17839,5.07411 -5.70645,2.75731 -12.30287,4.66582 -20.43018,5.91094 -4.69735,0.71965 -16.52474,1.01607 -21.72438,0.54447 -11.80784,-1.07096 -22.98598,-4.45348 -30.098173,-9.10775 l -2.110426,-1.38107 0.170929,1.24705 c 0.58325,4.25528 4.434737,8.23769 10.99893,11.3728 10.08354,4.81598 24.06662,6.81246 39.02135,5.57138 z m 0.53454,-15.90027 c 11.03732,-1.09296 21.34302,-4.46162 27.07075,-8.84871 3.35471,-2.5695 5.14065,-5.42139 5.34393,-8.53349 0.14345,-2.19596 -0.0953,-2.52137 -1.18834,-1.61944 -6.56226,5.41501 -18.77894,9.67234 -31.62725,11.0216 -5.89162,0.61871 -17.83003,0.4115 -23.11881,-0.40126 -10.77589,-1.656 -19.9089,-4.85281 -26.269554,-9.19507 -1.218417,-0.83178 -2.284802,-1.51233 -2.369746,-1.51233 -0.08495,0 -0.105834,0.76343 -0.04642,1.69651 0.746022,11.71604 25.67094,20.01975 52.20544,17.39219 z M 79.7824,58.007193 c 16.67426,-0.58884 32.06534,-6.64688 35.84701,-14.10963 0.68899,-1.35967 1.25491,-3.945904 1.00559,-4.595599 -0.0992,-0.258405 -0.695,0.05661 -2.059,1.088565 -4.26654,3.227924 -12.9231,6.856384 -20.22741,8.478484 -6.32272,1.40412 -10.09497,1.82021 -17.84898,1.96882 -7.39847,0.14179 -11.47752,-0.0771 -16.62879,-0.89233 -11.29909,-1.78818 -19.838469,-5.10538 -27.418006,-10.650778 -0.614037,-0.449246 -0.747864,0.07998 -0.439508,1.738088 0.415166,2.23244 1.267323,3.82492 3.098531,5.79044 5.745963,6.16742 19.445523,10.64104 34.514323,11.27074 2.49897,0.10443 4.90439,0.15947 5.34539,0.12232 0.44099,-0.0371 2.60587,-0.13125 4.81085,-0.20912 z"
       id="path839"
       inkscape:connector-curvature="0" />
  </g>
</svg>
